#!OML:ASF H:\Terrain\Patient Classification 1\PLAYGROUND\JustinFriday\JustinFriday.ASF
:FULLY-SPECIFIED
:DEGREES
205
root 3.28519 17.9729 10.0872 32.0709 -84.4687 -27.1928
lowerback 16.0104 0.00371355 2.40765
upperback 2.15896 0.517793 3.49778
thorax -6.68633 0.165956 2.25939
lowerneck -10.794 -4.4858 -5.74626
upperneck 3.32371 -5.59829 5.79106
head 3.40648 -2.6459 2.60707
rclavicle -1.94809e-014 1.35174e-014
rhumerus 86.3899 -20.1228 -26.306
rradius 38.1893
rwrist -14.2254
rhand -13.3292 -22.5296
rfingers 7.12502
rthumb 12.7759 -52.1187
lclavicle -1.94809e-014 1.35174e-014
lhumerus 81.8172 22.3312 40.8278
lradius 39.7415
lwrist -2.33616
lhand -1.6111 -6.86833
lfingers 7.12502
lthumb 24.0464 21.6452
rfemur -23.0524 -1.19948 23.331
rtibia 30.0906
rfoot -7.28512 -8.54595
rtoes 16.3907
lfemur -10.1618 6.92699 -13.067
ltibia 34.7164
lfoot -12.1523 5.69568
ltoes -6.08441
206
root 3.28168 17.9744 10.0835 32.5154 -84.4327 -27.4979
lowerback 16.0641 -0.0531702 2.34172
upperback 2.1495 0.434587 3.50072
thorax -6.72474 0.127173 2.31864
lowerneck -10.4975 -4.20165 -5.79979
upperneck 3.67169 -5.2506 5.99996
head 3.45983 -2.46843 2.71953
rclavicle -4.77083e-015 1.03368e-014
rhumerus 86.9344 -20.1765 -27.8808
rradius 38.7412
rwrist -13.5721
rhand -11.629 -23.6117
rfingers 7.12502
rthumb 14.4145 -53.0912
lclavicle -4.77083e-015 1.03368e-014
lhumerus 82.0353 22.7364 40.2518
lradius 39.2746
lwrist -2.98883
lhand -2.00811 -6.56288
lfingers 7.12502
lthumb 23.6656 22.0004
rfemur -23.1832 -1.32912 23.423
rtibia 30.0548
rfoot -7.24261 -8.48677
rtoes 16.106
lfemur -10.1628 6.49946 -13.1107
ltibia 34.4609
lfoot -12.2793 6.19036
ltoes -5.50863
207
root 3.2775 17.9769 10.0832 32.2384 -84.4209 -27.1166
lowerback 16.1494 -0.0998955 2.20694
upperback 2.10206 0.357768 3.50958
thorax -6.82181 0.093995 2.42313
lowerneck -9.9446 -4.21568 -6.06212
upperneck 3.49148 -5.286 6.42543
head 3.32246 -2.48355 2.91962
rclavicle -1.70955e-014 2.62396e-014
rhumerus 87.2807 -20.3356 -29.0593
rradius 39.3786
rwrist -13.2875
rhand -9.7455 -24.9446
rfingers 7.12502
rthumb 16.2287 -54.2854
lclavicle -1.70955e-014 2.62396e-014
lhumerus 82.556 23.1482 40.1425
lradius 38.2209
lwrist -3.51031
lhand -1.6934 -8.38125
lfingers 7.12502
lthumb 23.9674 20.1427
rfemur -23.208 -1.40979 23.4345
rtibia 29.9544
rfoot -7.15293 -8.60028
rtoes 14.8493
lfemur -10.0883 6.0293 -13.2027
ltibia 34.1992
lfoot -12.5512 6.51496
ltoes -4.56314
208
root 3.27356 17.974 10.0851 33.916 -84.1896 -28.8064
lowerback 16.2948 -0.160218 2.49218
upperback 2.20084 0.321833 3.46323
thorax -6.79237 0.0663115 2.21979
lowerneck -10.1843 -4.33489 -5.71402
upperneck 4.07236 -5.5183 6.72957
head 3.2105 -2.55826 2.64085
rclavicle -1.0138e-014 -6.36111e-015
rhumerus 87.5252 -20.6052 -30.6852
rradius 39.9978
rwrist -12.4649
rhand -7.48026 -25.7875
rfingers 7.12502
rthumb 18.4089 -54.9364
lclavicle -1.0138e-014 -6.36111e-015
lhumerus 82.8383 23.5117 38.9155
lradius 37.8204
lwrist -3.71979
lhand -2.15646 -7.23342
lfingers 7.12502
lthumb 23.5233 21.3482
rfemur -23.1689 -2.1169 23.7986
rtibia 29.9214
rfoot -7.31059 -8.02552
rtoes 15.2131
lfemur -9.90532 5.65165 -12.912
ltibia 33.9269
lfoot -12.7563 6.53246
ltoes -3.61871
209
root 3.27464 17.971 10.0878 35.3385 -84.0001 -30.1507
lowerback 16.3399 -0.202306 2.67502
upperback 2.31734 0.288504 3.44426
thorax -6.68995 0.0433674 2.10188
lowerneck -10.3735 -4.40921 -5.31682
upperneck 4.28303 -5.66264 6.59906
head 3.2986 -2.62334 2.52263
rclavicle -2.98177e-015 -2.46493e-014
rhumerus 87.8799 -20.7092 -32.44
rradius 40.6061
rwrist -11.3233
rhand -5.44652 -26.5969
rfingers 7.12502
rthumb 20.3643 -55.5492
lclavicle -2.98177e-015 -2.46493e-014
lhumerus 82.8546 23.9682 37.4888
lradius 37.5613
lwrist -3.92039
lhand -2.8582 -6.29464
lfingers 7.12502
lthumb 22.85 22.3717
rfemur -23.23 -1.42637 23.909
rtibia 29.9417
rfoot -7.57779 -8.66612
rtoes 16.8486
lfemur -9.81404 5.64233 -12.6239
ltibia 33.5596
lfoot -12.7928 6.25935
ltoes -3.29683
